<?xml version="1.0" standalone="no"?>
<!DOCTYPE svg PUBLIC "-//W3C//DTD SVG 20010904//EN"
 "http://www.w3.org/TR/2001/REC-SVG-20010904/DTD/svg10.dtd">
<svg version="1.0" xmlns="http://www.w3.org/2000/svg"
 width="644.000000pt" height="644.000000pt" viewBox="0 0 644.000000 644.000000"
 preserveAspectRatio="xMidYMid meet">
<metadata>
Created by potrace 1.14, written by Peter Selinger 2001-2017
</metadata>
<g transform="translate(0.000000,644.000000) scale(0.100000,-0.100000)"
fill="#000000" stroke="none">
<path d="M1690 6125 c0 -2 14 -27 30 -55 17 -28 30 -53 30 -55 0 -2 23 -42 50
-90 28 -48 50 -91 50 -96 0 -5 5 -9 10 -9 6 0 10 -5 10 -12 0 -6 20 -45 44
-87 24 -42 58 -103 76 -136 18 -33 50 -89 70 -125 21 -36 48 -83 60 -105 72
-128 115 -202 127 -216 7 -9 10 -19 6 -22 -3 -4 -1 -7 5 -7 7 0 12 -4 12 -8 0
-5 68 -124 150 -266 83 -141 150 -261 150 -267 0 -5 5 -9 10 -9 6 0 10 -4 10
-9 0 -4 21 -45 48 -90 26 -45 54 -93 62 -109 93 -168 170 -266 234 -299 17 -8
39 -22 49 -31 9 -8 17 -12 17 -7 0 4 6 3 13 -4 22 -18 145 -42 206 -40 60 1
116 12 181 34 42 14 129 74 171 118 34 35 129 177 129 192 0 2 26 48 58 102
33 54 136 231 229 393 94 162 180 311 191 330 12 19 36 62 55 95 19 33 58 101
87 150 29 50 65 113 80 140 28 52 54 98 98 175 14 25 32 53 40 63 8 9 12 17 8
17 -4 0 2 13 13 29 12 16 21 34 21 40 0 6 4 11 9 11 5 0 13 10 17 22 3 12 26
55 50 96 24 40 44 76 44 79 0 3 9 18 20 33 11 16 17 31 12 34 -9 5 -3042 6
-3042 1z"/>
<path d="M1522 6038 c-7 -7 -12 -16 -12 -20 0 -5 -16 -34 -35 -64 -19 -30 -35
-57 -35 -60 0 -4 -28 -53 -100 -174 -49 -84 -110 -192 -110 -197 0 -4 -6 -14
-14 -22 -7 -9 -25 -36 -39 -61 -13 -25 -49 -88 -79 -140 -31 -52 -81 -140
-113 -195 -97 -169 -107 -187 -195 -338 -47 -81 -90 -155 -95 -165 -6 -9 -37
-64 -70 -122 -33 -57 -64 -112 -70 -122 -5 -9 -25 -42 -42 -72 -18 -31 -33
-60 -33 -65 0 -5 -4 -11 -8 -13 -4 -1 -23 -30 -41 -63 -65 -115 -70 -124 -95
-164 -15 -22 -26 -43 -26 -46 0 -3 -16 -30 -35 -60 -19 -30 -32 -55 -29 -55 3
0 -2 -7 -10 -16 -9 -8 -16 -22 -16 -30 0 -8 -4 -14 -10 -14 -5 0 -10 -4 -10
-8 0 -7 -61 -117 -100 -182 -76 -125 -98 -170 -82 -171 181 -5 2222 -2 2222 4
0 5 4 6 9 2 11 -6 95 10 131 26 50 23 105 53 120 67 76 68 114 116 145 177 56
114 69 227 40 340 -13 49 -86 203 -115 240 -4 6 -20 33 -35 60 -30 54 -44 79
-78 137 -88 152 -213 368 -228 394 -9 17 -35 61 -57 96 -21 36 -45 79 -53 97
-8 17 -17 31 -21 31 -5 0 -8 4 -8 9 0 4 -30 60 -66 122 -37 63 -78 134 -92
158 -14 25 -38 67 -53 93 -16 27 -29 53 -29 58 0 4 -4 10 -9 12 -5 2 -17 20
-27 40 -16 31 -204 360 -264 460 -13 21 -19 25 -28 16z"/>
<path d="M4794 5895 c-108 -187 -96 -167 -169 -295 -33 -57 -64 -112 -70 -122
-5 -9 -28 -47 -49 -85 -39 -69 -119 -205 -136 -233 -8 -14 -40 -70 -100 -175
-28 -50 -154 -266 -235 -405 -34 -58 -65 -112 -69 -120 -4 -8 -12 -24 -19 -35
-36 -61 -139 -238 -166 -287 -132 -240 -50 -532 187 -671 58 -33 124 -56 184
-63 49 -6 2249 -7 2254 -1 3 2 -4 20 -14 38 -36 64 -95 164 -124 214 -16 28
-32 58 -35 68 -3 9 -9 17 -14 17 -5 0 -9 4 -9 9 0 6 -17 38 -37 73 -21 35 -46
77 -55 93 -10 17 -26 47 -35 68 -10 20 -21 37 -25 37 -5 0 -8 5 -8 11 0 6 -9
23 -19 38 -11 14 -30 47 -43 71 -14 25 -69 122 -123 215 -107 186 -125 218
-163 285 -14 25 -36 62 -49 82 -12 21 -23 42 -23 48 0 5 -4 10 -10 10 -5 0
-10 4 -10 9 0 7 -58 110 -227 401 -27 47 -52 92 -56 100 -4 8 -18 33 -32 55
-14 22 -35 58 -47 80 -12 22 -28 49 -35 60 -7 11 -20 36 -30 55 -10 19 -21 37
-25 38 -5 2 -8 7 -8 11 0 5 -46 86 -101 182 -56 96 -113 194 -127 219 -13 25
-28 48 -31 53 -4 4 -47 -63 -97 -148z"/>
<path d="M17 3232 c-14 -3 -13 -9 9 -43 24 -38 36 -59 85 -146 12 -21 61 -106
110 -190 49 -84 89 -155 89 -159 0 -3 9 -18 19 -32 26 -37 81 -133 88 -154 3
-10 9 -18 14 -18 5 0 9 -4 9 -9 0 -5 20 -44 45 -85 25 -42 45 -81 45 -86 0 -6
5 -10 10 -10 6 0 10 -4 10 -9 0 -5 32 -65 71 -133 39 -67 80 -138 90 -155 11
-18 29 -50 40 -70 12 -21 52 -91 90 -155 38 -64 69 -121 69 -127 0 -5 3 -11 8
-13 4 -1 14 -16 23 -33 9 -16 41 -73 71 -125 31 -52 66 -114 79 -136 120 -209
317 -550 331 -572 9 -15 26 -45 38 -67 39 -76 65 -115 74 -112 4 2 20 23 33
47 14 25 90 157 169 293 79 137 144 252 144 258 0 5 5 9 10 9 6 0 10 4 10 9 0
5 23 49 51 98 28 48 61 104 71 123 11 19 44 76 73 125 100 171 278 480 297
515 10 19 27 49 37 65 10 17 29 48 41 70 13 22 46 79 74 128 28 48 58 100 66
115 9 15 22 38 30 52 32 55 57 151 59 222 6 233 -158 445 -385 499 -36 8 -355
12 -1165 13 -613 0 -1123 0 -1132 -2z"/>
<path d="M4162 3228 c-164 -18 -299 -107 -381 -251 -77 -136 -84 -302 -18
-447 12 -26 199 -353 217 -380 6 -8 16 -27 23 -42 6 -16 15 -28 19 -28 4 0 8
-5 8 -11 0 -6 23 -49 51 -97 29 -48 62 -106 75 -129 40 -70 154 -267 164 -283
5 -8 18 -31 28 -50 10 -19 57 -100 104 -180 71 -121 173 -297 258 -445 10 -16
40 -70 69 -119 28 -49 51 -92 51 -97 0 -4 4 -9 8 -11 5 -1 15 -16 23 -32 19
-41 32 -42 52 -4 9 18 31 59 49 90 79 135 205 354 227 392 132 231 194 338
261 453 44 74 82 143 85 154 4 10 11 19 16 19 5 0 9 5 9 10 0 6 46 91 103 188
57 97 119 204 138 237 19 33 39 68 44 77 6 10 48 84 95 165 47 81 97 168 111
193 39 66 98 170 121 210 169 296 234 406 243 412 6 5 4 8 -5 9 -75 5 -2200 2
-2248 -3z"/>
<path d="M3121 2654 c-102 -17 -190 -63 -266 -138 -34 -35 -66 -72 -69 -84 -4
-12 -12 -22 -17 -22 -5 0 -9 -5 -9 -11 0 -5 -26 -54 -57 -107 -32 -53 -64
-108 -70 -122 -7 -14 -22 -41 -34 -60 -25 -42 -471 -810 -520 -895 -19 -33
-39 -69 -46 -80 -7 -11 -17 -29 -22 -40 -6 -11 -24 -42 -40 -70 -16 -27 -38
-66 -49 -86 -11 -20 -68 -120 -126 -223 -58 -102 -107 -192 -109 -198 -1 -9
349 -12 1508 -13 831 -1 1515 0 1521 2 7 3 -13 48 -48 111 -33 59 -74 132 -91
162 -45 81 -65 117 -112 200 -54 97 -91 162 -126 227 -43 79 -54 98 -59 103
-5 5 -26 41 -53 93 -7 12 -20 33 -28 47 -9 14 -69 117 -134 230 -65 113 -135
233 -156 267 -22 34 -39 64 -39 66 0 3 -46 83 -101 178 -56 96 -111 191 -122
212 -12 21 -29 46 -39 57 -10 11 -16 20 -13 20 5 0 -34 39 -78 76 -27 24 -144
83 -173 89 -10 2 -19 4 -19 5 0 1 -18 3 -40 6 -22 2 -51 6 -65 8 -14 1 -58 -3
-99 -10z"/>
</g>
</svg>
